<svg width="390" height="78" viewBox="0 0 390 78" fill="none" xmlns="http://www.w3.org/2000/svg">
<g clip-path="url(#clip0_172_6497)">
<g style="mix-blend-mode:color-dodge">
<path d="M-587.312 222.055C-536.706 185.651 -480.863 162.807 -419.2 184.983C-364.296 204.739 -321.615 250.636 -279.415 288.876C-231.854 331.977 -171.776 408.499 -98.7654 393.457C-57.6707 384.987 -21.5198 353.527 9.18644 326.74C76.9614 267.597 136.371 199.086 197.304 133.183C254.336 71.473 317.543 27.0787 370.736 112.968C406.553 170.776 434.36 262.214 515.59 265.427C587.683 268.285 641.857 210.706 706.837 189.468C806.507 156.903 907.617 252.618 977.227 308.841" stroke="#666666" stroke-miterlimit="10"/>
<path d="M-587.312 201.986C-535.37 161.513 -477.504 134.643 -411.899 157.967C-356.536 177.64 -310.685 222.493 -269.757 262.819C-227.202 304.773 -170.087 387.178 -100.413 373.117C-61.4255 365.252 -27.1313 333.729 1.61416 308.152C67.3448 249.635 126.046 182.918 185.435 118.183C239.817 58.9141 303.692 4.88149 357.636 90.374C392.932 146.305 419.737 235.574 499.444 236.679C570.911 237.66 630.509 185.776 697.241 168.002C801.104 140.318 902.61 231.067 977.206 289.043" stroke="#666666" stroke-miterlimit="10"/>
<path d="M-587.312 179.622C-530.009 134.539 -468.868 110.297 -398.819 141.59C-340.89 167.48 -290.158 216.464 -245.33 259.836C-205.111 298.765 -155.276 364.459 -91.8607 343.993C-53.1649 331.497 -19.5173 298.118 9.3533 271.289C67.2196 217.528 120.997 159.302 175.589 102.265C227.614 47.8781 290.737 -5.02789 346.664 70.8055C386.444 124.755 411.768 211.04 491.183 214.983C561.921 218.488 630.321 171.819 698.513 159.302C801.646 140.359 897.562 211.457 977.227 266.241" stroke="#666666" stroke-miterlimit="10"/>
<path d="M-587.312 154.775C-525.691 107.752 -462.902 87.0778 -390.913 124.212C-335.759 152.647 -284.86 198.439 -239.489 240.226C-197.205 279.175 -145.284 346.288 -81.3888 316.581C-48.0333 301.08 -20.5811 271.561 5.61936 246.589C60.7321 194.016 112.862 138.273 166.681 84.4075C222.357 28.6851 285.439 -14.5201 343.201 59.5608C382.96 110.568 411.602 190.866 486.99 194.204C556.351 197.292 625.252 164.059 692.944 153.002C797.433 135.937 890.198 189.218 977.227 240.56" stroke="#666666" stroke-miterlimit="10"/>
<path d="M-587.312 127.905C-516.242 76.626 -448.446 65.0267 -372.765 112.738C-318.382 147.014 -268.109 193.453 -219.442 235.323C-178.806 270.288 -133.101 325.176 -76.2364 293.382C-45.7804 276.359 -20.4352 246.005 3.82527 221.45C55.4753 169.149 105.769 115.575 158.921 64.7764C213.992 12.1415 277.032 -25.8482 335.649 40.6599C379.414 90.3115 409.724 169.504 484.925 176.68C551.198 183.001 623.416 157.091 688.605 146.994C792.781 130.867 884.441 167.689 977.185 212.646" stroke="#666666" stroke-miterlimit="10"/>
<path d="M-587.312 99.5116C-510.317 47.7112 -439.518 42.162 -362.356 96.3615C-304.135 137.251 -251.817 188.926 -196.454 233.738C-158.384 264.53 -116.267 306.755 -68.6849 271.373C-37.2277 247.986 -11.5487 212.751 14.5684 184.044C58.7295 135.54 103.996 87.6828 152.58 43.5805C212.115 -10.4729 276.677 -36.008 336.63 29.144C380.52 76.8346 414.146 151.27 486.26 159.344C554.515 166.979 628.319 149.059 695.927 139.775C795.347 126.132 883.836 148.35 977.206 182.918" stroke="#666666" stroke-miterlimit="10"/>
<path d="M-587.312 70.0335C-499.533 15.1456 -424.915 20.987 -344.332 85.3254C-283.191 134.142 -231.082 190.95 -167.354 237.013C-123.631 268.598 -92.1109 286.435 -52.2053 242.416C15.6114 167.605 70.5364 82.3421 149.993 17.8368C208.318 -29.4991 272.485 -47.1484 330.601 7.9482C379.706 54.4913 412.749 125.944 483.632 142.717C549.071 158.176 631.197 142.925 696.991 133.955C794.095 120.707 881.729 128.489 977.227 152.021" stroke="#666666" stroke-miterlimit="10"/>
<path d="M-587.312 39.9714C-489.019 -17.3783 -408.978 1.25148 -326.1 74.6649C-266.732 127.258 -217.356 188.154 -149.977 231.359C-100.518 263.091 -74.484 268.702 -40.6487 218.175C12.9622 138.127 66.9276 56.3063 145.028 -2.73315C208.172 -50.4863 272.151 -61.2093 333.855 -6.15452C385.234 39.7002 421.802 113.468 494.458 129.699C558.896 144.094 634.097 137.251 699.056 128.405C793.365 115.554 881.959 109.755 977.227 120.374" stroke="#666666" stroke-miterlimit="10"/>
<path d="M-587.312 9.805C-480.174 -49.3388 -396.358 -20.1946 -311.436 60.7292C-251.337 117.995 -201.794 187.946 -127.803 228.543C-72.8778 258.689 -53.6029 243.021 -27.4025 191.346C14.2763 109.171 66.9902 26.1191 144.194 -27.4128C209.549 -72.7459 275.655 -74.1437 337.047 -22.0513C390.595 23.4071 429.604 95.2558 501.342 115.408C655.208 158.635 822.653 94.0249 977.227 88.6634" stroke="#666666" stroke-miterlimit="10"/>
<path d="M-587.312 -20.0068C-534.015 -48.4 -483.908 -65.2565 -424.269 -44.5822C-374.934 -27.4754 -334.528 8.42813 -298.335 44.9992C-238.633 105.374 -187.588 186.611 -108.048 222.493C-48.3879 249.405 -34.2654 213.147 -14.1353 162.557C18.6779 80.0265 68.221 -4.52719 145.633 -52.8436C314.351 -158.176 375.242 54.9504 509.478 101.16C666.243 155.13 823.925 87.0362 977.227 57.3495" stroke="#666666" stroke-miterlimit="10"/>
<path d="M-587.312 -48.9841C-531.72 -78.3995 -480.487 -94.7971 -419.763 -72.4539C-368.822 -53.7198 -327.644 -15.438 -290.742 23.3445C-232.709 84.3241 -172.694 189.886 -86.1241 214.169C-25.5251 231.172 -15.971 174.469 -0.617902 128.823C26.2501 48.9213 72.5599 -39.179 150.035 -81.4454C310.867 -169.191 391.868 28.101 513.295 83.8651C672.605 157.028 826.867 82.0084 977.206 26.9745" stroke="#666666" stroke-miterlimit="10"/>
<path d="M-587.312 -76.6263C-531.178 -107.168 -480.612 -123.754 -418.824 -102.12C-367.591 -84.1784 -325.725 -44.1442 -289.303 -5.13224C-230.206 58.1839 -166.853 178.453 -74.9638 196.395C-12.5082 208.599 -3.74692 146.201 9.89568 99.3447C33.3217 18.9634 75.5012 -70.0131 156.46 -107.398C317.522 -181.771 404.384 7.63529 523.183 68.8861C585.034 100.763 665.116 117.098 734.018 106C821.359 91.9387 901.233 40.18 977.227 -1.81519" stroke="#666666" stroke-miterlimit="10"/>
<path d="M-587.312 -102.495C-527.527 -137.064 -469.744 -156.987 -403.555 -127.112C-353.886 -104.686 -314.481 -63.4624 -278.873 -23.4491C-225.512 36.5083 -158.259 162.828 -68.4972 172.299C-0.930892 179.434 7.60098 105.645 22.078 55.8265C44.461 -21.1752 84.7631 -103.726 165.889 -133.434C325.741 -191.993 418.172 -16.3977 533.509 52.2174C591.792 86.8901 667.974 110.631 736.145 102.14C827.471 90.7495 906.511 24.6587 977.185 -28.6437" stroke="#666666" stroke-miterlimit="10"/>
<path d="M-587.312 -126.09C-530.865 -162.056 -475.293 -187.091 -408.603 -160.158C-355.159 -138.566 -312.604 -92.7318 -275.89 -49.9022C-223.405 11.3278 -157.404 137.042 -64.1582 139.254C2.32338 140.818 14.631 65.9654 30.3179 15.9801C54.5784 -61.2511 92.9404 -136.167 178.029 -158.009C340.969 -199.858 431.44 -39.3043 548.028 37.7183C605.101 75.4368 681.22 106.542 750.748 96.5074C841.677 83.3643 914.73 7.78127 977.206 -52.8437" stroke="#666666" stroke-miterlimit="10"/>
<path d="M-587.312 -146.931C-535.496 -184.504 -481.676 -215.985 -415.779 -193.913C-364.421 -176.722 -323.973 -134.623 -289.407 -94.6929C-232.793 -29.3114 -175.844 86.9943 -78.3849 94.4211C-4.2893 100.054 14.9647 28.0383 36.2839 -28.9359C65.3631 -106.668 105.895 -172.487 194.947 -184.525C352.817 -205.867 443.789 -70.1175 553.472 15.3333C608.46 58.163 682.91 99.1777 754.857 92.1681C850.293 82.8636 920.529 -5.88335 977.206 -73.9143" stroke="#666666" stroke-miterlimit="10"/>
<path d="M-587.312 -163.371C-535.746 -199.357 -482.573 -228.981 -417.99 -207.953C-367.696 -191.576 -327.665 -151.333 -293.517 -112.613C-238.508 -50.2776 -180.287 69.3869 -85.6234 72.6622C-12.4248 75.1865 12.6284 10.3474 38.8706 -46.6476C72.5182 -119.685 118.056 -186.548 204.418 -198.21C356.76 -218.78 451.924 -91.9599 560.043 -10.8484C613.091 28.9354 687.916 69.4077 756.046 68.0725C851.294 66.1949 921.843 -24.4087 977.206 -90.5412" stroke="#666666" stroke-miterlimit="10"/>
<path d="M-587.312 -174.615C-536.56 -209.35 -484.159 -238.161 -420.848 -219.009C-371.93 -204.218 -332.484 -166.542 -298.878 -129.658C-244.745 -70.2217 -186.775 48.191 -95.1775 48.7543C-23.3556 49.1924 7.2255 -7.96947 38.5785 -63.6502C76.8779 -131.66 127.151 -196.917 210.446 -208.349C357.281 -228.481 456.472 -114.741 564.653 -39.033C617.179 -2.27414 691.191 38.7406 756.192 44.5402C850.96 52.9893 922.657 -38.5114 977.185 -102.266" stroke="#666666" stroke-miterlimit="10"/>
<path d="M-587.312 -181.583C-538.625 -214.858 -486.578 -243.627 -425.771 -228.189C-373.933 -215.046 -332.755 -175.846 -297.459 -137.898C-243.807 -80.2146 -190.008 26.9326 -100.372 22.9479C-32.555 19.9438 2.01053 -31.5436 37.4312 -82.2174C80.9249 -144.47 133.43 -202.841 213.075 -214.149C357.699 -234.698 459.017 -136.375 571.537 -66.2371C623.521 -33.8176 689.481 4.63113 749.371 20.1316C846.454 45.2494 920.383 -45.7298 977.206 -109.985" stroke="#666666" stroke-miterlimit="10"/>
<path d="M-587.312 -185.171C-539.96 -217.946 -489.019 -247.34 -429.213 -235.178C-379.419 -225.039 -338.95 -190.157 -304.26 -155.13C-249.856 -100.221 -199.208 -1.60663 -112.366 -5.4661C-46.4897 -8.38678 -6.87603 -51.738 33.426 -98.4481C81.7175 -154.4 137.456 -207.556 214.034 -218.697C352.546 -238.849 458.683 -160.241 572.517 -97.697C629.007 -66.6544 688.417 -28.7064 747.723 -3.58853C843.2 36.8629 918.255 -50.6741 977.185 -114.533" stroke="#666666" stroke-miterlimit="10"/>
</g>
</g>
<defs>
<clipPath id="clip0_172_6497">
<rect width="1566" height="1046" fill="white" transform="translate(-588 -485)"/>
</clipPath>
</defs>
</svg>
