<svg width="238" height="72" viewBox="0 0 238 72" fill="none" xmlns="http://www.w3.org/2000/svg">
<rect y="10" width="52" height="52" rx="26" fill="#141414"/>
<path d="M29.7442 27.984H32.0002V24.168C30.9079 24.0545 29.8104 23.9984 28.7122 24C25.4482 24 23.2162 25.992 23.2162 29.64V32.784H19.5322V37.056H23.2162V48H27.6322V37.056H31.3042L31.8562 32.784H27.6322V30.06C27.6322 28.8 27.9682 27.984 29.7442 27.984Z" fill="white"/>
<rect x="62" y="10" width="52" height="52" rx="26" fill="#141414"/>
<path d="M96.4701 25.9999H79.5301C79.3396 25.9973 79.1506 26.0321 78.9736 26.1026C78.7967 26.173 78.6354 26.2776 78.4989 26.4104C78.3624 26.5432 78.2533 26.7016 78.1781 26.8765C78.1028 27.0514 78.0627 27.2395 78.0601 27.4299V44.5699C78.0627 44.7603 78.1028 44.9484 78.1781 45.1233C78.2533 45.2982 78.3624 45.4566 78.4989 45.5894C78.6354 45.7222 78.7967 45.8268 78.9736 45.8972C79.1506 45.9676 79.3396 46.0025 79.5301 45.9999H96.4701C96.6605 46.0025 96.8496 45.9676 97.0265 45.8972C97.2034 45.8268 97.3648 45.7222 97.5013 45.5894C97.6378 45.4566 97.7468 45.2982 97.8221 45.1233C97.8974 44.9484 97.9375 44.7603 97.9401 44.5699V27.4299C97.9375 27.2395 97.8974 27.0514 97.8221 26.8765C97.7468 26.7016 97.6378 26.5432 97.5013 26.4104C97.3648 26.2776 97.2034 26.173 97.0265 26.1026C96.8496 26.0321 96.6605 25.9973 96.4701 25.9999ZM84.0901 42.7399H81.0901V33.7399H84.0901V42.7399ZM82.5901 32.4799C82.1763 32.4799 81.7795 32.3155 81.487 32.023C81.1944 31.7304 81.0301 31.3336 81.0301 30.9199C81.0301 30.5062 81.1944 30.1094 81.487 29.8168C81.7795 29.5243 82.1763 29.3599 82.5901 29.3599C82.8098 29.335 83.0322 29.3567 83.2429 29.4238C83.4536 29.4908 83.6478 29.6016 83.8127 29.7489C83.9776 29.8961 84.1096 30.0766 84.1999 30.2784C84.2903 30.4802 84.337 30.6988 84.337 30.9199C84.337 31.141 84.2903 31.3596 84.1999 31.5614C84.1096 31.7632 83.9776 31.9437 83.8127 32.0909C83.6478 32.2382 83.4536 32.349 83.2429 32.416C83.0322 32.483 82.8098 32.5048 82.5901 32.4799ZM94.9101 42.7399H91.9101V37.9099C91.9101 36.6999 91.4801 35.9099 90.3901 35.9099C90.0527 35.9124 89.7242 36.0182 89.4489 36.2131C89.1735 36.408 88.9645 36.6826 88.8501 36.9999C88.7718 37.2349 88.7379 37.4825 88.7501 37.7299V42.7299H85.7501C85.7501 42.7299 85.7501 34.5499 85.7501 33.7299H88.7501V34.9999C89.0226 34.527 89.419 34.1374 89.8965 33.8731C90.374 33.6088 90.9146 33.4797 91.4601 33.4999C93.4601 33.4999 94.9101 34.7899 94.9101 37.5599V42.7399Z" fill="white"/>
<rect x="124" y="10" width="52" height="52" rx="26" fill="#141414"/>
<path d="M160 29.8C159.248 30.1261 158.453 30.3416 157.64 30.44C158.498 29.9273 159.141 29.1207 159.45 28.17C158.644 28.65 157.761 28.9883 156.84 29.17C156.225 28.5025 155.405 28.0583 154.51 27.9068C153.615 27.7554 152.695 27.9053 151.894 28.3332C151.093 28.761 150.457 29.4425 150.085 30.2708C149.714 31.0991 149.627 32.0274 149.84 32.91C148.209 32.8275 146.614 32.4029 145.159 31.6638C143.703 30.9247 142.419 29.8877 141.39 28.62C141.029 29.2501 140.84 29.9638 140.84 30.69C140.839 31.3643 141.004 32.0286 141.322 32.6235C141.639 33.2185 142.099 33.7257 142.66 34.1C142.008 34.0822 141.37 33.9073 140.8 33.59V33.64C140.805 34.5849 141.136 35.4991 141.737 36.2279C142.339 36.9568 143.173 37.4556 144.1 37.64C143.743 37.7485 143.373 37.8058 143 37.81C142.742 37.807 142.484 37.7835 142.23 37.74C142.494 38.5528 143.005 39.2631 143.691 39.7721C144.378 40.2811 145.206 40.5635 146.06 40.58C144.617 41.7152 142.836 42.3348 141 42.34C140.666 42.3411 140.332 42.321 140 42.28C141.874 43.4902 144.059 44.1327 146.29 44.13C147.83 44.146 149.357 43.855 150.783 43.274C152.209 42.6931 153.505 41.8338 154.595 40.7465C155.685 39.6591 156.548 38.3654 157.133 36.9409C157.717 35.5164 158.012 33.9897 158 32.45C158 32.28 158 32.1 158 31.92C158.785 31.3348 159.461 30.6174 160 29.8Z" fill="white"/>
<rect x="186" y="10" width="52" height="52" rx="26" fill="#141414"/>
<path d="M223 33.71C223.049 32.2786 222.736 30.858 222.09 29.58C221.651 29.0556 221.043 28.7017 220.37 28.58C217.588 28.3275 214.794 28.224 212 28.27C209.217 28.2219 206.433 28.3221 203.66 28.57C203.112 28.6697 202.605 28.9268 202.2 29.31C201.3 30.14 201.2 31.56 201.1 32.76C200.955 34.9175 200.955 37.0824 201.1 39.24C201.129 39.9154 201.23 40.5858 201.4 41.24C201.521 41.745 201.765 42.2123 202.11 42.6C202.517 43.0034 203.036 43.2752 203.6 43.38C205.756 43.6461 207.928 43.7564 210.1 43.71C213.6 43.76 216.67 43.71 220.3 43.43C220.877 43.3316 221.411 43.0595 221.83 42.65C222.11 42.3699 222.319 42.0271 222.44 41.65C222.798 40.5526 222.973 39.4041 222.96 38.25C223 37.69 223 34.31 223 33.71ZM209.74 38.85V32.66L215.66 35.77C214 36.69 211.81 37.73 209.74 38.85Z" fill="white"/>
</svg>
